<svg xmlns="http://www.w3.org/2000/svg" xmlns:xlink="http://www.w3.org/1999/xlink" width="70" zoomAndPan="magnify" viewBox="0 0 52.5 52.499999" height="70" preserveAspectRatio="xMidYMid meet" version="1.0"><defs><clipPath id="421f76ec59"><path d="M 0 0 L 52.003906 0 L 52.003906 52.003906 L 0 52.003906 Z M 0 0 " clip-rule="nonzero"/></clipPath><clipPath id="4952c179c7"><path d="M 0.0078125 9.140625 L 52 9.140625 L 52 43.015625 L 0.0078125 43.015625 Z M 0.0078125 9.140625 " clip-rule="nonzero"/></clipPath><clipPath id="153435e901"><path d="M 2.976562 9.140625 L 49.027344 9.140625 C 49.816406 9.140625 50.570312 9.457031 51.128906 10.011719 C 51.683594 10.570312 51.996094 11.324219 51.996094 12.113281 L 51.996094 40.03125 C 51.996094 40.820312 51.683594 41.578125 51.128906 42.132812 C 50.570312 42.691406 49.816406 43.003906 49.027344 43.003906 L 2.976562 43.003906 C 2.191406 43.003906 1.433594 42.691406 0.878906 42.132812 C 0.320312 41.578125 0.0078125 40.820312 0.0078125 40.03125 L 0.0078125 12.113281 C 0.0078125 11.324219 0.320312 10.570312 0.878906 10.011719 C 1.433594 9.457031 2.191406 9.140625 2.976562 9.140625 Z M 2.976562 9.140625 " clip-rule="nonzero"/></clipPath><clipPath id="665baad009"><path d="M 13.339844 13.324219 L 38.671875 13.324219 L 38.671875 18.558594 L 13.339844 18.558594 Z M 13.339844 13.324219 " clip-rule="nonzero"/></clipPath><clipPath id="d1291d8892"><path d="M 15.570312 13.324219 L 36.433594 13.324219 C 37.664062 13.324219 38.664062 14.324219 38.664062 15.554688 L 38.664062 16.332031 C 38.664062 17.5625 37.664062 18.558594 36.433594 18.558594 L 15.570312 18.558594 C 14.339844 18.558594 13.339844 17.5625 13.339844 16.332031 L 13.339844 15.554688 C 13.339844 14.324219 14.339844 13.324219 15.570312 13.324219 Z M 15.570312 13.324219 " clip-rule="nonzero"/></clipPath><clipPath id="3a5b8893e1"><path d="M 21.066406 33.046875 L 30.953125 33.046875 L 30.953125 36.988281 L 21.066406 36.988281 Z M 21.066406 33.046875 " clip-rule="nonzero"/></clipPath><clipPath id="f05420da86"><path d="M 23.035156 33.046875 L 28.96875 33.046875 C 29.492188 33.046875 29.992188 33.253906 30.363281 33.625 C 30.730469 33.992188 30.9375 34.496094 30.9375 35.019531 C 30.9375 35.539062 30.730469 36.042969 30.363281 36.410156 C 29.992188 36.78125 29.492188 36.988281 28.96875 36.988281 L 23.035156 36.988281 C 22.515625 36.988281 22.011719 36.78125 21.644531 36.410156 C 21.273438 36.042969 21.066406 35.539062 21.066406 35.019531 C 21.066406 34.496094 21.273438 33.992188 21.644531 33.625 C 22.011719 33.253906 22.515625 33.046875 23.035156 33.046875 Z M 23.035156 33.046875 " clip-rule="nonzero"/></clipPath></defs><g clip-path="url(#421f76ec59)"><path fill="#ffffff" d="M 0 0 L 52.003906 0 L 52.003906 52.003906 L 0 52.003906 Z M 0 0 " fill-opacity="1" fill-rule="nonzero"/><path fill="#ffffff" d="M 0 0 L 52.003906 0 L 52.003906 52.003906 L 0 52.003906 Z M 0 0 " fill-opacity="1" fill-rule="nonzero"/></g><g clip-path="url(#4952c179c7)"><g clip-path="url(#153435e901)"><path stroke-linecap="butt" transform="matrix(0.742924, 0, 0, 0.742924, 0.00721868, 9.14249)" fill="none" stroke-linejoin="miter" d="M 3.996832 -0.00251076 L 65.982653 -0.00251076 C 67.044756 -0.00251076 68.059538 0.423382 68.811423 1.170009 C 69.55805 1.921894 69.978685 2.936676 69.978685 3.998779 L 69.978685 41.577256 C 69.978685 42.63936 69.55805 43.659399 68.811423 44.406027 C 68.059538 45.157912 67.044756 45.578547 65.982653 45.578547 L 3.996832 45.578547 C 2.939986 45.578547 1.919946 45.157912 1.173319 44.406027 C 0.421434 43.659399 0.000799303 42.63936 0.000799303 41.577256 L 0.000799303 3.998779 C 0.000799303 2.936676 0.421434 1.921894 1.173319 1.170009 C 1.919946 0.423382 2.939986 -0.00251076 3.996832 -0.00251076 Z M 3.996832 -0.00251076 " stroke="#000000" stroke-width="4" stroke-opacity="1" stroke-miterlimit="4"/></g></g><g clip-path="url(#665baad009)"><g clip-path="url(#d1291d8892)"><path fill="#000000" d="M 13.339844 13.324219 L 38.671875 13.324219 L 38.671875 18.558594 L 13.339844 18.558594 Z M 13.339844 13.324219 " fill-opacity="1" fill-rule="nonzero"/></g></g><g clip-path="url(#3a5b8893e1)"><g clip-path="url(#f05420da86)"><path fill="#000000" d="M 21.066406 33.046875 L 30.9375 33.046875 L 30.9375 36.988281 L 21.066406 36.988281 Z M 21.066406 33.046875 " fill-opacity="1" fill-rule="nonzero"/></g></g><path stroke-linecap="round" transform="matrix(0.742924, 0, 0, 0.742924, 17.681603, 22.274821)" fill="none" stroke-linejoin="miter" d="M 1.001687 1.002403 L 21.402482 1.002403 " stroke="#000000" stroke-width="2" stroke-opacity="1" stroke-miterlimit="4"/><path stroke-linecap="round" transform="matrix(0.742924, 0, 0, 0.742924, 17.681603, 25.334818)" fill="none" stroke-linejoin="miter" d="M 1.001687 1.000515 L 21.402482 1.000515 " stroke="#000000" stroke-width="2" stroke-opacity="1" stroke-miterlimit="4"/><path stroke-linecap="round" transform="matrix(0.742924, -0.000000000000001198, 0.000000000000001198, 0.742924, 22.711019, 27.845663)" fill="none" stroke-linejoin="miter" d="M 0.998899 1.001691 L 7.860506 1.001691 " stroke="#000000" stroke-width="2" stroke-opacity="1" stroke-miterlimit="4"/></svg>