<svg xmlns="http://www.w3.org/2000/svg" xmlns:xlink="http://www.w3.org/1999/xlink" width="70" zoomAndPan="magnify" viewBox="0 0 52.5 52.499999" height="70" preserveAspectRatio="xMidYMid meet" version="1.0"><defs><clipPath id="4aa4899041"><path d="M 0 0 L 52.003906 0 L 52.003906 52.003906 L 0 52.003906 Z M 0 0 " clip-rule="nonzero"/></clipPath><clipPath id="61c58b0e7b"><path d="M 0.0078125 9.140625 L 52 9.140625 L 52 43.015625 L 0.0078125 43.015625 Z M 0.0078125 9.140625 " clip-rule="nonzero"/></clipPath><clipPath id="4e6ff93282"><path d="M 2.976562 9.140625 L 49.027344 9.140625 C 49.816406 9.140625 50.570312 9.457031 51.128906 10.011719 C 51.683594 10.570312 51.996094 11.324219 51.996094 12.113281 L 51.996094 40.03125 C 51.996094 40.820312 51.683594 41.578125 51.128906 42.132812 C 50.570312 42.691406 49.816406 43.003906 49.027344 43.003906 L 2.976562 43.003906 C 2.191406 43.003906 1.433594 42.691406 0.878906 42.132812 C 0.320312 41.578125 0.0078125 40.820312 0.0078125 40.03125 L 0.0078125 12.113281 C 0.0078125 11.324219 0.320312 10.570312 0.878906 10.011719 C 1.433594 9.457031 2.191406 9.140625 2.976562 9.140625 Z M 2.976562 9.140625 " clip-rule="nonzero"/></clipPath><clipPath id="f2194f48e5"><path d="M 3.972656 13.324219 L 26.011719 13.324219 L 26.011719 18.558594 L 3.972656 18.558594 Z M 3.972656 13.324219 " clip-rule="nonzero"/></clipPath><clipPath id="ae72377c4e"><path d="M 6.199219 13.324219 L 23.773438 13.324219 C 25.003906 13.324219 26.003906 14.324219 26.003906 15.554688 L 26.003906 16.332031 C 26.003906 17.5625 25.003906 18.558594 23.773438 18.558594 L 6.199219 18.558594 C 4.96875 18.558594 3.972656 17.5625 3.972656 16.332031 L 3.972656 15.554688 C 3.972656 14.324219 4.96875 13.324219 6.199219 13.324219 Z M 6.199219 13.324219 " clip-rule="nonzero"/></clipPath><clipPath id="731ddbf0c1"><path d="M 3.972656 34.085938 L 13.859375 34.085938 L 13.859375 38.027344 L 3.972656 38.027344 Z M 3.972656 34.085938 " clip-rule="nonzero"/></clipPath><clipPath id="bdebf55bfd"><path d="M 5.941406 34.085938 L 11.875 34.085938 C 12.398438 34.085938 12.898438 34.292969 13.269531 34.664062 C 13.636719 35.035156 13.84375 35.535156 13.84375 36.058594 C 13.84375 36.582031 13.636719 37.082031 13.269531 37.453125 C 12.898438 37.820312 12.398438 38.027344 11.875 38.027344 L 5.941406 38.027344 C 5.421875 38.027344 4.917969 37.820312 4.550781 37.453125 C 4.179688 37.082031 3.972656 36.582031 3.972656 36.058594 C 3.972656 35.535156 4.179688 35.035156 4.550781 34.664062 C 4.917969 34.292969 5.421875 34.085938 5.941406 34.085938 Z M 5.941406 34.085938 " clip-rule="nonzero"/></clipPath><clipPath id="1d2e0cb4a7"><path d="M 27.746094 15.652344 L 46.804688 15.652344 L 46.804688 35.457031 L 27.746094 35.457031 Z M 27.746094 15.652344 " clip-rule="nonzero"/></clipPath><clipPath id="bebf38c8e1"><path d="M 29.972656 15.652344 L 44.574219 15.652344 C 45.804688 15.652344 46.804688 16.652344 46.804688 17.882812 L 46.804688 33.183594 C 46.804688 34.417969 45.804688 35.414062 44.574219 35.414062 L 29.972656 35.414062 C 28.742188 35.414062 27.746094 34.417969 27.746094 33.183594 L 27.746094 17.882812 C 27.746094 16.652344 28.742188 15.652344 29.972656 15.652344 Z M 29.972656 15.652344 " clip-rule="nonzero"/></clipPath></defs><g clip-path="url(#4aa4899041)"><path fill="#ffffff" d="M 0 0 L 52.003906 0 L 52.003906 52.003906 L 0 52.003906 Z M 0 0 " fill-opacity="1" fill-rule="nonzero"/><path fill="#ffffff" d="M 0 0 L 52.003906 0 L 52.003906 52.003906 L 0 52.003906 Z M 0 0 " fill-opacity="1" fill-rule="nonzero"/></g><g clip-path="url(#61c58b0e7b)"><g clip-path="url(#4e6ff93282)"><path stroke-linecap="butt" transform="matrix(0.742924, 0, 0, 0.742924, 0.00721868, 9.142492)" fill="none" stroke-linejoin="miter" d="M 3.996832 -0.002513 L 65.982653 -0.002513 C 67.044756 -0.002513 68.059538 0.42338 68.811423 1.170007 C 69.55805 1.921892 69.978685 2.936674 69.978685 3.998777 L 69.978685 41.577254 C 69.978685 42.639357 69.55805 43.659397 68.811423 44.406024 C 68.059538 45.157909 67.044756 45.578544 65.982653 45.578544 L 3.996832 45.578544 C 2.939986 45.578544 1.919946 45.157909 1.173319 44.406024 C 0.421434 43.659397 0.000799303 42.639357 0.000799303 41.577254 L 0.000799303 3.998777 C 0.000799303 2.936674 0.421434 1.921892 1.173319 1.170007 C 1.919946 0.42338 2.939986 -0.002513 3.996832 -0.002513 Z M 3.996832 -0.002513 " stroke="#000000" stroke-width="4" stroke-opacity="1" stroke-miterlimit="4"/></g></g><g clip-path="url(#f2194f48e5)"><g clip-path="url(#ae72377c4e)"><path fill="#000000" d="M 3.972656 13.324219 L 26.011719 13.324219 L 26.011719 18.558594 L 3.972656 18.558594 Z M 3.972656 13.324219 " fill-opacity="1" fill-rule="nonzero"/></g></g><g clip-path="url(#731ddbf0c1)"><g clip-path="url(#bdebf55bfd)"><path fill="#000000" d="M 3.972656 34.085938 L 13.84375 34.085938 L 13.84375 38.027344 L 3.972656 38.027344 Z M 3.972656 34.085938 " fill-opacity="1" fill-rule="nonzero"/></g></g><path stroke-linecap="round" transform="matrix(0.742924, 0, 0, 0.742924, 5.200472, 21.731086)" fill="none" stroke-linejoin="miter" d="M 1.002579 0.998177 L 21.398116 0.998177 " stroke="#000000" stroke-width="2" stroke-opacity="1" stroke-miterlimit="4"/><path stroke-linecap="round" transform="matrix(0.742924, 0, 0, 0.742924, 5.200472, 24.791086)" fill="none" stroke-linejoin="miter" d="M 1.002579 1.001542 L 21.398116 1.001542 " stroke="#000000" stroke-width="2" stroke-opacity="1" stroke-miterlimit="4"/><path stroke-linecap="round" transform="matrix(0.742924, -0.000000000000001198, 0.000000000000001198, 0.742924, 5.200472, 28.787781)" fill="none" stroke-linejoin="miter" d="M 1.002579 1.000734 L 7.858929 1.000734 " stroke="#000000" stroke-width="2" stroke-opacity="1" stroke-miterlimit="4"/><g clip-path="url(#1d2e0cb4a7)"><g clip-path="url(#bebf38c8e1)"><path fill="#000000" d="M 27.746094 15.652344 L 46.804688 15.652344 L 46.804688 35.382812 L 27.746094 35.382812 Z M 27.746094 15.652344 " fill-opacity="1" fill-rule="nonzero"/></g></g></svg>