<?xml version="1.0" standalone="no"?>
<!DOCTYPE svg PUBLIC "-//W3C//DTD SVG 20010904//EN"
 "http://www.w3.org/TR/2001/REC-SVG-20010904/DTD/svg10.dtd">
<svg version="1.0" xmlns="http://www.w3.org/2000/svg"
 width="70.000000pt" height="70.000000pt" viewBox="0 0 70.000000 70.000000"
 preserveAspectRatio="xMidYMid meet">

<g transform="translate(0.000000,70.000000) scale(0.100000,-0.100000)"
fill="#000000" stroke="none">
<path d="M17 569 c-15 -9 -17 -30 -17 -217 0 -149 3 -211 12 -220 17 -17 659
-17 676 0 9 9 12 71 12 220 0 195 -1 208 -19 218 -26 14 -640 13 -664 -1z
m658 -219 l0 -205 -325 0 -325 0 -3 195 c-1 107 0 200 3 207 3 11 71 13 327
11 l323 -3 0 -205z"/>
<path d="M60 504 c-10 -11 -11 -20 -3 -32 9 -15 30 -17 149 -17 l139 0 0 30 0
30 -136 3 c-115 2 -138 0 -149 -14z"/>
<path d="M382 478 c-19 -19 -16 -222 4 -242 20 -20 213 -23 232 -4 17 17 17
229 0 246 -16 16 -220 16 -236 0z"/>
<path d="M70 400 c0 -6 43 -10 110 -10 67 0 110 4 110 10 0 6 -43 10 -110 10
-67 0 -110 -4 -110 -10z"/>
<path d="M75 360 c-4 -6 33 -10 104 -10 67 0 111 4 111 10 0 6 -41 10 -104 10
-59 0 -108 -4 -111 -10z"/>
<path d="M70 300 c0 -13 77 -13 85 0 4 6 -12 10 -39 10 -25 0 -46 -4 -46 -10z"/>
<path d="M58 228 c-11 -29 4 -38 62 -38 38 0 60 4 63 13 10 28 -6 37 -63 37
-37 0 -60 -4 -62 -12z"/>
</g>
</svg>
