<?xml version="1.0" standalone="no"?>
<!DOCTYPE svg PUBLIC "-//W3C//DTD SVG 20010904//EN"
 "http://www.w3.org/TR/2001/REC-SVG-20010904/DTD/svg10.dtd">
<svg version="1.0" xmlns="http://www.w3.org/2000/svg"
 width="70.000000pt" height="70.000000pt" viewBox="0 0 70.000000 70.000000"
 preserveAspectRatio="xMidYMid meet">

<g transform="translate(0.000000,70.000000) scale(0.100000,-0.100000)"
fill="#000000" stroke="none">
<path d="M17 569 c-15 -9 -17 -30 -17 -217 0 -149 3 -211 12 -220 17 -17 659
-17 676 0 9 9 12 71 12 220 0 195 -1 208 -19 218 -26 14 -640 13 -664 -1z
m658 -219 l0 -205 -325 0 -325 0 -3 195 c-1 107 0 200 3 207 3 11 71 13 327
11 l323 -3 0 -205z"/>
<path d="M184 506 c-3 -8 -4 -23 -2 -33 3 -16 17 -18 168 -18 l165 0 0 30 0
30 -163 3 c-135 2 -163 0 -168 -12z"/>
<path d="M240 390 c0 -6 43 -10 110 -10 67 0 110 4 110 10 0 6 -43 10 -110 10
-67 0 -110 -4 -110 -10z"/>
<path d="M240 350 c0 -6 43 -10 110 -10 67 0 110 4 110 10 0 6 -43 10 -110 10
-67 0 -110 -4 -110 -10z"/>
<path d="M328 313 c12 -2 32 -2 45 0 12 2 2 4 -23 4 -25 0 -35 -2 -22 -4z"/>
<path d="M291 244 c-27 -21 4 -44 59 -44 50 0 75 16 61 39 -11 16 -99 20 -120
5z"/>
</g>
</svg>
